<svg version="1.1" id="Layer_1" xmlns="http://www.w3.org/2000/svg" xmlns:xlink="http://www.w3.org/1999/xlink" x="0px" y="0px"
	 width="100%" viewBox="0 0 992 992" enable-background="new 0 0 992 992" xml:space="preserve">
<path fill="#000000" opacity="1.000000" stroke="none" 
	d="
M993.000000,652.531372 
	C986.317749,649.070740 982.765076,642.229980 977.965027,636.590210 
	C967.329468,624.093994 957.035950,611.306580 946.608398,598.633484 
	C935.332092,584.928833 924.078369,571.205505 912.784424,557.515442 
	C901.176819,543.445068 889.536011,529.401917 877.889099,515.364014 
	C877.488708,514.881348 876.866455,514.582703 875.561890,513.616333 
	C875.180481,520.467529 875.793579,526.777161 874.309937,532.823486 
	C872.643250,539.615845 875.974426,543.738953 880.913696,547.729309 
	C900.908875,563.883240 920.735107,580.246887 940.555359,596.615845 
	C942.513611,598.233154 945.848633,599.686462 945.038635,602.682129 
	C943.929443,606.784302 941.814880,610.719604 938.730408,613.762390 
	C937.276428,615.196655 935.740356,613.500610 934.427979,612.451843 
	C914.331909,596.392761 894.220947,580.352478 874.102844,564.320984 
	C873.344971,563.717041 872.480286,563.247314 870.918579,562.227356 
	C848.667480,681.390625 785.217834,771.057251 679.947998,830.241333 
	C624.185974,861.591492 563.338196,876.417480 499.698395,875.787537 
	C410.157715,874.901245 329.632965,846.487549 260.676758,788.502991 
	C200.716553,738.083191 159.972015,675.102478 139.601242,599.096619 
	C115.066307,507.553864 123.764626,418.847595 165.248596,334.315796 
	C206.808197,249.629913 273.174377,189.966339 360.129822,153.148636 
	C358.790070,150.816116 355.809540,150.470947 355.335358,147.416000 
	C356.995972,145.983795 359.000610,145.326080 361.363953,145.749542 
	C362.929352,147.733917 361.957825,150.056702 362.906860,153.253891 
	C362.906860,150.790192 362.873291,149.482407 362.914581,148.177002 
	C362.980194,146.103195 363.130249,143.969162 365.905762,143.854446 
	C368.879852,143.731522 368.805908,146.282501 368.995331,148.087311 
	C369.284393,150.840805 369.071106,153.647034 370.091125,156.427048 
	C369.978027,153.920944 370.108307,151.374374 369.699646,148.917419 
	C368.921936,144.241913 370.750061,141.811554 375.327118,140.756821 
	C380.287903,139.613693 385.154358,137.007507 389.598969,142.075302 
	C390.604980,143.222351 392.382843,142.438751 393.865723,142.010101 
	C416.986481,135.326508 440.525787,130.581604 464.418762,127.880669 
	C470.795349,127.159843 477.276459,125.966232 483.776703,126.671280 
	C491.048065,127.459969 498.289764,126.336235 505.556824,126.362450 
	C523.880920,126.428558 541.966736,128.386261 560.052856,130.820389 
	C560.209473,130.841476 560.376160,130.788071 560.812012,130.737946 
	C558.256287,125.176331 553.986755,120.895508 549.994812,116.731506 
	C545.331543,111.867287 544.070312,106.629265 544.684326,100.399307 
	C544.813782,99.085861 544.703247,97.748756 544.523132,96.401810 
	C543.607666,99.729240 544.664246,103.437630 542.681763,106.738853 
	C537.790161,104.198235 539.053650,99.561951 538.427490,95.079346 
	C543.018311,92.641472 547.531616,90.811584 552.025024,88.990799 
	C552.005127,88.999908 551.964783,89.017288 551.964783,89.017288 
	C556.352478,87.195015 558.859314,89.355339 561.508545,92.741180 
	C572.723877,107.074821 584.368713,121.073639 595.509949,135.463181 
	C599.063660,140.053040 604.022217,140.931137 608.832642,142.291290 
	C629.491089,148.132584 649.519409,155.684326 668.629944,165.375626 
	C693.261353,177.866669 716.205261,193.040543 737.798889,210.337738 
	C751.067749,220.966553 763.574036,232.385208 775.067078,244.814102 
	C787.324280,258.069305 798.386719,272.343018 808.773071,287.177521 
	C818.606079,301.221558 827.502747,315.781219 835.373718,330.954834 
	C845.409302,350.301453 853.174927,370.600861 859.312744,391.510162 
	C864.776917,410.124298 869.087585,429.020447 871.980530,448.194000 
	C873.558655,458.653412 874.323792,469.239380 875.297485,479.782898 
	C875.501648,481.993774 875.679260,484.100433 877.104919,485.861847 
	C890.004456,501.799530 902.986816,517.670715 915.813904,533.666443 
	C929.793030,551.098816 943.556091,568.704529 957.556824,586.119324 
	C969.053284,600.419312 980.759766,614.550415 992.686523,628.878174 
	C993.000000,636.687561 993.000000,644.375183 993.000000,652.531372 
M507.626373,270.924408 
	C493.567657,259.530518 479.564209,248.067596 465.438202,236.757706 
	C439.532196,216.016220 413.510284,195.419128 387.669342,174.597198 
	C384.912659,172.375916 382.642578,172.058319 379.517487,173.234909 
	C317.659027,196.524429 266.170197,234.073975 225.510620,286.132874 
	C185.536880,337.313721 161.723999,395.290527 153.990463,459.865540 
	C150.827377,486.277252 150.711075,512.666016 153.571411,539.061401 
	C154.038773,543.374207 153.642517,548.051575 156.207870,552.327209 
	C160.519348,551.412476 165.105728,551.279297 168.559723,548.571350 
	C175.672684,542.994690 183.589005,538.686707 191.005585,533.604126 
	C195.221237,530.715149 197.839661,526.830688 198.661453,521.807617 
	C200.979935,507.636566 204.281555,493.959137 216.552872,484.568054 
	C217.060684,484.179413 217.378754,483.528046 217.746201,482.973206 
	C220.953339,478.129883 225.346451,474.625671 230.344055,471.806335 
	C236.680252,468.231812 242.984894,467.655670 249.033508,472.342804 
	C250.800781,473.712311 252.384857,473.963409 253.864243,472.349060 
	C259.853882,465.812683 268.231140,464.946472 276.096680,463.121429 
	C285.235626,461.000885 294.371429,461.080200 302.749969,466.130035 
	C313.164764,472.407104 323.252411,468.136047 332.731537,464.365112 
	C339.039764,461.855591 344.654480,457.124847 349.541351,451.996887 
	C351.292938,450.158966 353.400574,448.758850 356.070496,448.697449 
	C362.049774,448.559875 366.327515,445.620056 369.911682,441.009003 
	C374.031189,435.709167 378.744843,430.950775 385.383820,428.812653 
	C388.931030,427.670288 392.125671,425.997284 394.980316,423.614807 
	C398.998627,420.261139 403.677216,419.289948 408.579315,420.767120 
	C412.281433,421.882751 415.538055,421.512024 418.511505,419.291412 
	C427.867035,412.304382 439.776306,409.001801 447.043976,398.895782 
	C449.376617,395.652100 453.537445,393.481140 457.700958,395.762421 
	C462.235687,398.247040 464.603943,396.155304 467.299072,392.954285 
	C473.624359,385.441650 481.383606,380.937408 491.677643,381.780029 
	C497.728088,382.275330 503.371948,381.283875 508.661652,377.576721 
	C514.095154,373.768799 519.934692,374.221863 525.353027,378.429504 
	C527.973938,380.464752 530.673035,382.398987 533.786987,383.734863 
	C549.590393,390.514404 566.740295,394.937653 578.421631,409.017303 
	C578.932800,409.633392 579.756165,410.006653 580.467468,410.438080 
	C589.320190,415.808044 597.715698,421.734711 605.072021,429.121429 
	C609.893738,433.963074 615.826111,436.136749 622.840698,435.078186 
	C627.136963,434.429810 631.570557,434.179688 635.509888,436.567688 
	C643.074890,441.153503 652.714661,438.959778 660.073059,444.181061 
	C660.394775,444.409332 661.048096,444.210999 661.539978,444.152618 
	C667.761536,443.414246 672.953308,445.767944 677.532593,449.670624 
	C682.227722,453.671936 687.121277,457.380280 692.103577,461.022919 
	C696.883301,464.517456 703.168640,463.970856 707.680908,467.454681 
	C713.537292,471.976349 720.238892,474.935089 726.507629,478.680420 
	C731.769165,481.824005 736.882507,485.383972 741.499329,489.405029 
	C753.110046,499.517456 761.850098,512.133057 770.909607,524.436646 
	C771.789307,525.631409 772.469543,527.006470 773.057739,528.377136 
	C776.682129,536.823425 780.886780,544.973267 786.417908,552.317200 
	C794.830444,563.487000 803.008606,574.718384 809.178955,587.403320 
	C813.255371,595.783691 818.957458,602.506836 830.257446,601.034302 
	C834.383423,600.496582 836.437256,599.742737 837.561462,595.624329 
	C841.901794,579.724976 844.955383,563.579956 847.565308,547.329102 
	C848.062195,544.235474 846.737915,542.342102 844.521057,540.556580 
	C833.531006,531.705383 822.637390,522.733948 811.618469,513.919067 
	C793.771118,499.641663 775.824402,485.488464 757.972534,471.216705 
	C742.444824,458.803101 727.029541,446.248718 711.492920,433.846375 
	C693.739624,419.674530 675.858032,405.663147 658.122131,391.469727 
	C639.214478,376.338684 620.434448,361.048248 601.556824,345.879456 
	C583.455444,331.334412 565.316162,316.836426 547.163635,302.355225 
	C534.190002,292.005463 521.167114,281.717499 507.626373,270.924408 
M347.306061,580.605835 
	C346.394714,581.668274 344.595001,581.951904 344.449127,584.011536 
	C353.672699,588.233704 363.339752,591.262329 373.042053,594.162354 
	C389.724030,599.148804 406.836945,601.922974 424.201935,601.467163 
	C447.533142,600.854736 469.855286,594.961365 491.604797,586.648621 
	C516.027771,577.314087 539.513306,565.718506 564.095154,556.781433 
	C584.040405,549.530090 604.417419,544.378418 625.771973,543.640625 
	C651.873474,542.738892 676.561584,548.981995 700.740845,558.011353 
	C727.104858,567.856567 752.270386,580.645020 778.907471,589.817017 
	C780.580933,590.393250 782.169678,591.451294 784.205627,590.867737 
	C784.276978,587.669312 783.134155,584.977234 781.201294,582.622070 
	C773.165894,572.830811 768.360535,561.287170 763.265198,549.884949 
	C759.878601,542.306519 756.904480,534.504456 749.650940,529.367676 
	C738.930054,521.775574 730.086853,511.916229 719.252075,504.347870 
	C711.783081,499.130554 704.414978,494.342865 695.448975,492.237518 
	C687.510559,490.373444 679.604492,488.334320 671.771851,486.069153 
	C666.163574,484.447266 660.033569,482.765411 656.910706,477.527954 
	C651.639282,468.687042 643.782043,464.783447 634.196228,463.049011 
	C630.651428,462.407593 627.587646,459.938019 623.659729,460.459198 
	C612.335083,461.961823 601.716980,459.209778 593.421692,451.744843 
	C580.126526,439.780396 564.020081,431.572662 551.203735,419.066895 
	C549.818359,417.715088 547.895996,416.790039 546.070496,416.035095 
	C539.302368,413.236084 532.379028,410.796570 525.913391,407.308899 
	C523.468079,405.989868 521.941345,406.818420 520.544922,408.978119 
	C517.444275,413.773407 513.178101,417.548309 509.235291,421.612457 
	C500.387177,430.733063 489.379333,437.334839 480.455231,446.330963 
	C475.863251,450.960022 470.697510,454.227295 464.360870,455.849396 
	C457.868378,457.511353 454.827209,461.500549 454.319550,468.350037 
	C453.845856,474.741302 451.742615,480.678680 446.894470,484.797577 
	C437.122528,493.099701 426.890015,500.844696 414.275238,504.556885 
	C408.817352,506.163025 404.960480,509.870270 401.349548,513.927612 
	C410.440735,524.198730 409.421143,531.289246 398.402710,538.733215 
	C393.992493,541.712708 389.637817,544.823547 385.557709,548.233337 
	C372.912598,558.800903 360.411499,569.540649 347.306061,580.605835 
M805.872681,485.590057 
	C820.047607,497.238617 834.222534,508.887207 848.259583,520.422485 
	C849.507690,519.830811 849.625000,519.017456 849.752075,518.179321 
	C851.133423,509.066437 850.751465,499.898529 850.485779,490.748779 
	C850.299805,484.343048 848.879395,478.582947 843.879639,473.658966 
	C838.357605,468.220581 833.767334,461.828278 828.840271,455.795105 
	C815.835693,439.871277 802.933228,423.863739 789.868469,407.989624 
	C776.697815,391.986969 763.319702,376.155090 750.145142,360.155609 
	C736.868103,344.031677 723.749451,327.777466 710.524353,311.610657 
	C698.766113,297.236908 686.958191,282.903839 675.170227,268.554382 
	C662.436279,253.053497 649.702332,237.552567 636.964111,222.055191 
	C623.383240,205.532516 609.879272,188.945496 596.157471,172.540634 
	C592.619934,168.311417 590.074341,162.910156 583.872131,161.399628 
	C558.391479,155.193985 532.501770,151.971130 506.335266,151.502441 
	C482.833405,151.081482 459.444611,153.118683 436.330566,157.520660 
	C429.287842,158.861938 422.052521,159.738525 414.819061,162.846054 
	C424.297577,170.859024 433.200348,178.541672 442.271088,186.020630 
	C460.677826,201.197281 479.202637,216.230682 497.626831,231.386261 
	C511.709564,242.970642 525.670105,254.703629 539.761902,266.276978 
	C555.764038,279.419220 571.911560,292.384583 587.885437,305.560791 
	C604.257324,319.065277 620.435913,332.804230 636.807739,346.308807 
	C656.761047,362.767700 676.873047,379.034149 696.831970,395.486298 
	C714.867371,410.352966 732.750610,425.404144 750.771667,440.288300 
	C768.919922,455.277496 787.155334,470.161224 805.872681,485.590057 
M295.036682,654.542603 
	C279.467407,648.171509 263.703674,642.393372 247.232986,638.745056 
	C226.353455,634.120300 205.388275,633.687134 184.268997,637.019592 
	C179.955795,637.700195 179.841690,639.418945 181.441513,642.665710 
	C183.133621,646.099854 184.933975,649.524963 186.162094,653.132751 
	C187.918808,658.293396 191.300156,659.158569 196.240463,658.491882 
	C208.687607,656.812256 221.145477,657.446228 233.562775,659.174072 
	C255.505905,662.227539 276.168304,669.558777 296.502106,677.982117 
	C320.639191,687.980957 344.230438,699.330994 369.283386,707.054016 
	C392.135681,714.098633 415.405121,717.135315 439.232727,714.317688 
	C462.405365,711.577454 484.207245,703.977966 505.628296,695.063416 
	C528.676758,685.471497 551.245728,674.679443 575.073669,667.022766 
	C601.248047,658.612061 627.843933,655.147461 655.274353,659.532837 
	C677.660400,663.111633 698.687622,670.836487 719.450012,679.489502 
	C739.423645,687.813904 759.018494,697.062378 779.530029,704.067017 
	C781.317688,704.677551 783.425232,706.185974 785.029663,704.104675 
	C789.156921,698.750366 793.225952,693.331360 796.339966,687.442261 
	C795.128662,685.988770 793.808594,685.731140 792.544250,685.365356 
	C778.129333,681.193665 764.171753,675.768860 750.361511,669.945190 
	C729.044189,660.955811 708.052063,651.178040 685.987671,644.021423 
	C667.491028,638.021973 648.563660,634.370911 629.139954,634.599731 
	C604.554260,634.889343 581.175232,641.275269 558.353699,650.104126 
	C534.126282,659.476929 510.657776,670.646118 486.331512,679.811096 
	C442.677063,696.257996 399.309265,696.278931 355.712585,679.714600 
	C335.463654,672.021118 315.769318,663.045593 295.036682,654.542603 
M786.239441,653.393860 
	C775.544434,650.172852 765.183228,646.045227 754.864685,641.807007 
	C730.696472,631.880188 707.160400,620.375122 682.049561,612.804321 
	C658.344666,605.657410 634.311462,602.816589 609.604553,606.178650 
	C586.607361,609.308044 565.093201,617.127686 543.852844,625.960510 
	C520.649963,635.609436 497.946045,646.498230 473.848846,653.917297 
	C450.021179,661.253296 425.763031,664.479309 400.924072,661.182678 
	C379.158691,658.293945 358.537140,651.283508 338.321808,642.954712 
	C316.312378,633.886719 294.754456,623.729980 272.248505,615.857117 
	C239.971024,604.565918 207.228546,601.025818 173.628723,609.156128 
	C170.247681,609.974365 168.925934,611.073303 170.404099,614.525391 
	C171.515549,617.121094 172.427261,619.817749 173.220215,622.530151 
	C174.110321,625.574890 175.466553,626.682068 178.993973,625.959900 
	C197.227921,622.227295 215.579620,621.524536 234.068893,624.254639 
	C257.499481,627.714417 279.461853,635.795593 301.125031,644.923828 
	C322.598999,653.972412 343.727692,663.863953 365.965210,671.036743 
	C389.198151,678.530762 412.894196,682.137634 437.276978,679.563721 
	C458.123413,677.363098 477.941467,671.102356 497.344086,663.425659 
	C519.950317,654.481323 541.897949,643.953796 564.725891,635.531006 
	C598.068481,623.228638 632.003052,618.552795 667.107422,626.720642 
	C692.229797,632.565857 715.720825,642.813477 739.261292,652.983154 
	C758.669983,661.367859 778.089111,669.753662 798.709900,674.861511 
	C800.464539,675.296143 802.464661,676.446106 803.805176,674.612915 
	C806.994995,670.251038 809.860046,665.664185 811.567322,660.286865 
	C802.991821,657.957581 795.000427,655.786987 786.239441,653.393860 
M655.527649,209.988205 
	C665.114929,221.808304 674.733643,233.603043 684.281860,245.454590 
	C697.350525,261.675903 710.381775,277.927521 723.398743,294.190399 
	C734.778625,308.408051 746.089233,322.681152 757.480469,336.889740 
	C770.317871,352.902313 783.219238,368.863647 796.077698,384.859344 
	C806.548950,397.885376 816.977722,410.945587 827.464844,423.958740 
	C833.297607,431.196442 839.211365,438.368835 845.688599,446.305908 
	C830.616333,335.474701 749.526978,221.701889 628.547852,176.068542 
	C637.708679,187.492325 646.467468,198.414642 655.527649,209.988205 
M277.013275,568.595276 
	C273.236389,567.298645 269.477295,565.947205 265.679565,564.714783 
	C248.324768,559.082886 230.492294,555.870911 212.282639,555.544434 
	C196.510437,555.261536 181.273834,559.121155 166.165619,563.281494 
	C156.850449,565.846619 156.852875,565.871948 159.690506,575.285767 
	C159.768448,575.544373 160.173721,575.704346 160.484390,575.957642 
	C162.995331,576.118225 165.309372,575.063782 167.696106,574.429749 
	C186.023621,569.560974 204.680344,567.445923 223.562439,568.982605 
	C246.645950,570.861328 268.521210,577.705200 289.929230,586.303589 
	C313.101105,595.610535 335.633331,606.458923 359.215302,614.778870 
	C379.939331,622.090576 401.198456,626.769226 423.196411,626.435364 
	C444.313446,626.114807 464.688812,621.286072 484.581940,614.192139 
	C509.078522,605.456787 532.431213,593.982422 556.634644,584.550659 
	C577.049866,576.595215 597.925903,570.430847 619.848938,568.876038 
	C641.493225,567.341064 662.629456,570.636230 683.339050,577.043762 
	C709.820007,585.236938 734.704346,597.384521 760.268982,607.844727 
	C780.361694,616.065857 800.898071,622.648743 822.516235,625.424072 
	C824.623474,625.694580 827.117981,626.373047 828.164551,623.699646 
	C829.400574,620.542175 831.195923,617.475952 830.996338,613.686890 
	C829.005554,613.320129 827.236084,612.853394 825.438477,612.684082 
	C798.737793,610.169006 774.012695,600.939270 749.573547,590.615479 
	C729.338013,582.067444 709.377563,572.854309 688.495728,565.863037 
	C669.252930,559.420471 649.565247,555.404602 629.293823,555.612183 
	C607.474670,555.835693 586.466980,560.858704 565.981812,568.296936 
	C539.670227,577.850769 514.627380,590.489929 488.324951,600.043335 
	C466.949799,607.807129 445.126495,613.221191 422.155029,613.402588 
	C396.736847,613.603333 372.689178,607.420532 349.338043,598.242554 
	C325.331787,588.807068 301.587982,578.703857 277.013275,568.595276 
M454.645599,427.208862 
	C450.103546,429.991943 445.853882,433.271576 441.326202,436.001038 
	C431.621002,441.851685 421.622437,447.352142 409.578735,446.312988 
	C408.298004,446.202484 406.682281,446.222351 405.710419,446.891357 
	C399.275543,451.320679 391.639191,454.123444 386.199982,459.796478 
	C380.158783,466.097382 373.662170,471.152893 364.991852,473.110168 
	C363.447571,473.458740 361.896667,474.453461 360.693726,475.533875 
	C349.373840,485.700439 336.641663,492.476410 321.121460,493.756500 
	C313.383270,494.394745 305.770142,495.110535 298.580658,491.708466 
	C294.885437,489.959900 293.189484,491.312683 290.804443,494.094849 
	C282.577271,503.691711 274.408813,513.394714 265.082428,521.957520 
	C259.960266,526.660278 252.944000,526.355164 248.296814,521.997864 
	C243.791412,517.773499 243.419922,510.692047 247.304794,505.115631 
	C248.476746,503.433411 250.411484,502.201874 250.982849,499.534790 
	C247.804214,499.430939 244.935165,499.254456 242.436478,497.871643 
	C240.033600,496.541840 238.505005,497.077179 237.109100,499.386658 
	C236.086182,501.079071 234.824417,502.756927 233.306458,503.997528 
	C227.232071,508.961975 224.623154,515.586426 223.632202,523.085266 
	C222.792923,529.436279 220.684784,535.358887 217.530090,540.923706 
	C217.124451,541.639099 216.747299,542.410278 217.554001,543.376099 
	C222.668457,543.923889 227.968002,544.322327 233.214844,545.083862 
	C251.916992,547.798279 269.879028,553.229370 287.329651,560.366150 
	C290.524414,561.672729 292.429352,561.171509 294.451965,558.357300 
	C297.848206,553.632019 301.693634,549.231506 305.293274,544.649780 
	C307.728973,541.549438 310.879547,539.944092 314.791107,539.979553 
	C324.258636,540.065430 331.536896,536.462402 337.448914,528.753418 
	C344.206818,519.941406 351.244690,511.153503 362.144562,506.752777 
	C374.168793,501.898102 384.835724,494.960632 393.479187,485.155548 
	C396.727051,481.471161 400.777985,479.160706 405.651611,479.070587 
	C414.760620,478.902252 421.016266,473.535797 427.216095,467.924408 
	C429.576477,465.788055 430.470337,463.039124 430.726746,459.914307 
	C431.691223,448.160675 443.672760,434.211609 455.341370,431.960602 
	C461.219513,430.826630 463.998108,426.613525 467.764069,422.918030 
	C462.056244,420.620880 458.800629,424.130920 454.645599,427.208862 
M718.378723,704.986572 
	C733.401794,711.351990 748.413452,717.744751 763.462646,724.047729 
	C765.328918,724.829407 767.468567,726.564636 769.397217,724.351929 
	C771.745605,721.657593 774.585632,719.270081 776.060059,715.346252 
	C771.344910,713.474976 766.877747,711.710388 762.416687,709.930420 
	C737.682800,700.061401 713.730774,688.287292 688.419189,679.815308 
	C668.854553,673.266724 648.821289,669.236145 628.199890,669.605164 
	C603.278564,670.051086 579.618103,676.713867 556.538879,685.798828 
	C533.916992,694.703674 511.995880,705.283386 489.170593,713.697571 
	C469.874725,720.810669 450.160492,726.105164 429.553253,727.267334 
	C407.334503,728.520386 385.829498,724.575195 364.746613,717.749207 
	C338.868652,709.370728 314.467804,697.365906 289.310181,687.221313 
	C265.064667,677.444580 240.221481,670.374756 213.927567,669.576538 
	C208.204163,669.402771 202.452469,670.161438 196.471359,670.504578 
	C196.878250,674.765015 199.585098,677.090027 200.828568,680.083069 
	C202.030518,682.976135 204.201218,683.805176 207.208679,683.701965 
	C235.050369,682.746521 261.201599,690.064636 286.802155,700.072510 
	C312.538452,710.133423 337.337006,722.484436 363.604340,731.261414 
	C387.415283,739.217651 411.727875,743.075317 436.801361,740.583862 
	C460.555267,738.223511 482.858002,730.487610 504.769043,721.451294 
	C526.926758,712.313232 548.583984,701.956970 571.334351,694.259521 
	C599.014771,684.894165 627.185425,680.776855 656.318848,685.644531 
	C677.650269,689.208618 697.790161,696.514771 718.378723,704.986572 
M444.819916,636.497620 
	C443.679718,636.736267 442.549774,637.055054 441.397888,637.201904 
	C416.365173,640.392395 391.979919,637.245605 368.006531,629.800781 
	C342.814972,621.977844 319.095825,610.500977 294.803131,600.449951 
	C263.772675,587.611206 232.102234,578.148499 197.917221,581.316650 
	C186.154495,582.406799 174.602249,584.493225 163.405716,587.945007 
	C163.282516,598.062683 164.648636,599.211853 173.610138,597.079590 
	C190.081314,593.160522 206.800598,591.594543 223.656281,592.999695 
	C246.746140,594.924500 268.618774,601.743408 290.022034,610.354004 
	C312.727295,619.488464 334.828979,630.076477 357.896515,638.336609 
	C378.897736,645.856689 400.466156,650.744263 422.809723,650.456299 
	C448.075684,650.130493 472.073792,643.367371 495.459534,634.157410 
	C518.392517,625.125854 540.674438,614.544800 563.752014,605.846924 
	C602.136902,591.379639 640.913452,588.021729 680.607361,600.192139 
	C705.043579,607.684387 728.156128,618.407898 751.633362,628.264099 
	C771.762207,636.714478 792.082153,644.566650 813.810242,647.990540 
	C815.428040,648.245422 817.311890,649.280334 818.266663,647.294983 
	C819.724548,644.263489 821.825256,641.396545 821.905273,637.516846 
	C803.956726,634.998901 786.876465,630.182129 770.175842,623.911499 
	C745.694397,614.719421 722.135315,603.314087 697.686279,594.018494 
	C657.385681,578.696045 616.899109,576.196106 575.624573,590.003174 
	C552.358887,597.786011 530.171021,608.107910 507.571991,617.470398 
	C487.551971,625.764282 467.279877,633.227478 444.819916,636.497620 
M396.314819,751.376648 
	C388.046997,750.287720 379.985168,748.252502 371.993500,745.948059 
	C347.104248,738.770996 323.756317,727.654785 299.986694,717.626404 
	C277.229736,708.025208 254.137009,699.567261 229.400421,696.743042 
	C223.600540,696.080994 217.732590,695.410828 211.545990,695.820801 
	C215.971008,704.866760 220.848145,712.169006 231.919754,710.877319 
	C232.392334,710.822205 232.894653,711.073547 233.388657,711.142578 
	C255.332413,714.207275 276.024353,721.479492 296.363892,729.915649 
	C319.737000,739.609985 342.620605,750.502319 366.762085,758.309631 
	C384.797760,764.142273 403.287903,767.546936 422.192657,767.404114 
	C442.466309,767.251038 462.134460,763.001526 481.309937,756.364014 
	C506.688141,747.579651 530.783630,735.685547 555.760132,725.937439 
	C578.350342,717.120850 601.427368,710.430481 625.905823,709.649414 
	C649.917175,708.883240 672.841858,714.055786 695.273987,722.006958 
	C712.870544,728.244202 729.850037,735.994629 747.005310,743.311401 
	C748.997253,744.160950 750.992737,745.342712 752.900513,743.155029 
	C755.039307,740.702515 757.671082,738.628723 759.185120,735.333130 
	C757.860291,734.528748 756.810303,733.696411 755.620483,733.197693 
	C733.049377,723.737671 710.867188,713.333252 687.613647,705.534546 
	C659.469360,696.095581 630.807007,693.085876 601.486511,698.407837 
	C580.889404,702.146484 561.435852,709.523987 542.227722,717.614380 
	C518.605103,727.564087 495.388153,738.541016 470.700439,745.794250 
	C446.592499,752.877136 422.163483,755.665588 396.314819,751.376648 
M632.486755,757.661499 
	C639.503540,757.408813 646.436768,758.301758 653.356567,759.263062 
	C672.608765,761.937744 690.879333,768.064148 708.859924,775.183044 
	C715.180542,777.685547 720.964111,775.070374 724.234131,767.711060 
	C717.958862,765.135315 711.717468,762.485046 705.410522,760.001404 
	C685.994812,752.355408 666.167969,746.200256 645.254211,744.368835 
	C617.876709,741.971375 591.588989,746.881836 565.931702,756.261536 
	C543.082764,764.614563 521.158691,775.176331 498.547943,784.087158 
	C474.909485,793.403015 450.816833,800.688232 425.112427,801.344788 
	C402.485474,801.922729 380.821350,797.285461 359.588776,789.994385 
	C335.309479,781.657104 312.288025,770.246094 288.432312,760.879150 
	C278.335571,756.914612 268.228790,752.889526 257.339020,751.024048 
	C267.269318,759.751282 275.472717,770.186157 288.644440,775.041931 
	C312.062042,783.674988 334.434082,794.953491 357.966309,803.385864 
	C377.847015,810.509644 398.261780,815.213318 419.388641,815.457153 
	C440.523682,815.701050 461.015137,811.361084 480.988739,804.492126 
	C506.530640,795.708252 530.742310,783.683472 555.871582,773.901550 
	C580.200684,764.431274 605.041443,757.277771 632.486755,757.661499 
M690.799255,742.564270 
	C704.280579,746.929260 717.236267,752.627258 730.288818,758.085205 
	C735.954529,760.454224 738.139954,759.435059 741.007080,753.246399 
	C739.549927,752.511475 738.115845,751.693665 736.609558,751.043213 
	C722.856140,745.104797 709.125671,739.110474 694.994629,734.096252 
	C678.321655,728.180115 661.335815,723.707153 643.616882,722.278870 
	C614.067688,719.897095 586.089722,726.295898 558.775635,736.909363 
	C533.173462,746.857666 508.478821,759.006470 482.519928,768.088806 
	C448.054932,780.147156 413.240662,783.316040 377.594757,773.506653 
	C355.675873,767.474792 334.885895,758.612793 314.097015,749.663147 
	C292.541229,740.383423 271.019592,730.986023 247.945129,725.975464 
	C242.876602,724.874878 237.844818,723.147949 231.355652,723.617615 
	C236.271988,728.285034 238.538834,734.001160 245.332779,735.342163 
	C263.037476,738.836670 279.881622,745.126526 296.513458,752.002991 
	C320.654785,761.984131 344.232513,773.354553 369.282745,781.090088 
	C387.068085,786.582153 405.240326,789.777771 423.808258,789.424316 
	C448.730957,788.950012 472.387115,782.264404 495.461304,773.202332 
	C518.704956,764.073792 541.192993,753.129028 564.680237,744.589111 
	C583.538025,737.732422 602.829529,732.797668 622.929810,731.736084 
	C646.020325,730.516479 668.304993,734.797180 690.799255,742.564270 
M448.557495,833.863464 
	C459.775024,832.109924 470.629608,828.948669 481.356171,825.322693 
	C507.109985,816.616943 531.434937,804.402100 556.734131,794.576477 
	C582.060852,784.740173 607.949951,777.813477 635.451721,778.650452 
	C654.101501,779.217957 672.108582,783.084778 689.587769,789.294861 
	C695.238403,791.302368 699.129089,790.066345 702.926697,785.609009 
	C702.173462,785.105408 701.581482,784.530151 700.873108,784.262146 
	C682.603699,777.349792 663.960876,771.964355 644.382385,770.319580 
	C614.494629,767.808655 586.174500,774.207703 558.541565,784.995178 
	C535.115540,794.140320 512.367310,804.894592 488.853729,813.840881 
	C449.653839,828.755432 410.064117,832.198792 369.617920,819.280029 
	C355.380310,814.732422 341.507019,809.238098 327.561523,803.873047 
	C340.210083,812.254150 354.173950,817.982605 367.821136,824.387756 
	C393.451630,836.417175 420.083008,839.093079 448.557495,833.863464 
M590.419128,808.705261 
	C614.189697,802.795898 638.160461,801.612305 662.133606,806.869324 
	C670.563782,808.717957 675.289978,803.663391 681.215820,800.120483 
	C680.125793,798.259521 678.771362,797.875244 677.540222,797.508057 
	C661.962585,792.861694 645.980408,790.509644 629.779724,790.619385 
	C607.236145,790.771973 585.599304,795.987488 564.516724,803.768677 
	C543.876892,811.386475 523.988037,820.796814 503.623810,829.064453 
	C486.129486,836.166931 468.365936,842.508850 448.882019,845.911072 
	C453.351227,847.696045 457.205292,847.708008 460.939697,848.256409 
	C473.227417,850.061035 485.405518,850.981567 496.995941,844.704346 
	C501.364136,842.338684 506.212769,840.868225 510.815826,838.926636 
	C536.730591,827.995911 562.176514,815.838440 590.419128,808.705261 
M542.056824,837.641907 
	C537.783508,839.489258 533.502869,841.319946 529.239014,843.188965 
	C525.032715,845.032715 520.843445,846.915283 516.646667,848.780884 
	C516.827148,849.203918 517.007629,849.626892 517.188110,850.049927 
	C562.803589,847.980103 606.331726,837.517334 647.573242,817.641174 
	C646.867432,816.803040 646.274170,816.488098 645.654785,816.423584 
	C631.844971,814.985107 618.098816,815.596252 604.421692,817.863708 
	C582.944946,821.424255 562.710999,828.940491 542.056824,837.641907 
z"/>
<path fill="#000000" opacity="1.000000" stroke="none" 
	d="
M293.668091,95.672882 
	C294.347931,86.166420 295.579865,77.176521 297.134766,68.041245 
	C302.351654,68.139473 304.774963,72.349907 307.954590,74.898331 
	C324.754456,88.363167 341.244080,102.214355 357.920288,115.834831 
	C360.764160,118.157616 361.115845,121.209053 361.130188,124.351837 
	C361.188782,137.187561 363.056213,134.014832 351.424500,138.186920 
	C345.194153,140.421646 341.353180,137.725281 337.172943,134.365631 
	C323.882202,123.683861 310.568604,113.030357 297.320557,102.295914 
	C295.407837,100.746101 293.438965,99.026382 293.668091,95.672882 
z"/>
<path fill="#000000" opacity="1.000000" stroke="none" 
	d="
M524.714905,46.403793 
	C528.365234,51.135330 531.674866,55.680252 535.287048,59.970478 
	C537.105957,62.130852 538.059998,64.029449 537.630066,67.071663 
	C537.053711,71.149567 537.214661,75.375443 537.469055,79.512573 
	C537.658630,82.595459 536.009155,83.836098 533.553223,84.236473 
	C530.251709,84.774704 526.892029,88.644676 523.548279,84.588234 
	C513.032349,71.830582 502.637115,58.973427 492.115173,46.220795 
	C490.011505,43.671124 490.613739,41.321926 491.995270,38.881443 
	C494.525909,34.410999 497.061737,29.941971 499.690796,25.529182 
	C502.451294,20.895689 504.220764,20.891226 507.616089,25.328896 
	C513.041870,32.420319 518.388916,39.576385 524.714905,46.403793 
z"/>
<path fill="#000000" opacity="1.000000" stroke="none" 
	d="
M533.987122,94.973679 
	C533.367126,94.759361 532.491333,94.733368 532.171082,94.298378 
	C530.730225,92.341095 527.531067,91.184738 527.994873,88.445267 
	C528.488770,85.528061 531.887817,85.861473 534.060669,84.917381 
	C536.031189,84.061195 538.140320,83.475861 540.236755,82.972672 
	C541.953613,82.560593 544.031616,81.785469 544.595337,85.019341 
	C544.791992,81.690025 546.964783,80.293007 549.650879,80.275185 
	C553.342712,80.250694 553.905090,83.856750 555.601562,85.981758 
	C554.976685,87.658745 553.387268,87.710457 552.205444,88.804886 
	C551.964783,89.017288 552.005127,88.999908 551.646851,89.039299 
	C547.276855,89.698143 543.359619,90.732430 539.917297,92.267693 
	C537.976990,90.275253 539.287415,87.980812 537.837463,85.830963 
	C536.868774,89.407761 538.844360,93.769104 533.987122,94.973679 
z"/>
<path fill="#000000" opacity="1.000000" stroke="none" 
	d="
M369.107086,136.346436 
	C369.387878,133.625565 371.913971,133.957642 373.386230,132.354263 
	C367.649139,133.221405 368.708496,129.888092 368.996979,126.121422 
	C374.497437,128.988800 377.876923,133.273483 382.505035,136.600006 
	C379.088898,139.759216 375.162048,140.076065 371.567413,140.706100 
	C369.070007,141.143799 369.287292,138.473236 369.107086,136.346436 
z"/>
<path fill="#000000" opacity="1.000000" stroke="none" 
	d="
M353.252319,146.121613 
	C350.697174,144.713196 348.403534,143.478027 346.185913,140.863800 
	C350.658630,138.715408 355.060699,137.742813 359.442169,136.908936 
	C361.368988,136.542221 361.657806,138.488632 361.878387,139.962097 
	C362.162384,141.859467 362.077820,143.671204 359.811523,144.368698 
	C357.768890,144.997391 355.701752,145.546448 353.252319,146.121613 
z"/>
<path fill="#000000" opacity="1.000000" stroke="none" 
	d="
M539.017212,67.178665 
	C544.495056,68.990318 545.046692,73.156075 544.346619,78.171951 
	C543.895935,81.401405 541.873718,81.548805 538.993103,81.871643 
	C538.397522,76.948425 538.543396,72.238068 539.017212,67.178665 
z"/>
<path fill="#000000" opacity="1.000000" stroke="none" 
	d="
M363.543091,121.163467 
	C368.107574,123.445244 367.621216,127.532021 367.874084,131.257187 
	C367.975616,132.753098 366.877197,133.656921 365.458344,134.013245 
	C364.230011,134.321686 362.882080,134.194748 362.625336,132.801361 
	C361.904633,128.889862 360.392548,124.885292 363.543091,121.163467 
z"/>
<path fill="#000000" opacity="1.000000" stroke="none" 
	d="
M362.983459,141.509262 
	C362.830811,140.782944 362.795471,140.455063 362.765503,140.126709 
	C362.534241,137.592239 362.891937,135.142792 366.060089,135.274872 
	C369.064423,135.400116 368.423523,138.151215 368.092346,139.852798 
	C367.555054,142.613846 365.709930,143.505890 362.983459,141.509262 
z"/>
</svg>